<?xml version="1.0" encoding="iso-8859-1"?>
<!-- Generator: Adobe Illustrator 19.0.0, SVG Export Plug-In . SVG Version: 6.00 Build 0)  -->
<svg version="1.1" id="Capa_1" xmlns="http://www.w3.org/2000/svg" xmlns:xlink="http://www.w3.org/1999/xlink" x="0px" y="0px"
	 viewBox="0 0 480 480" style="enable-background:new 0 0 480 480;" xml:space="preserve">
<g>
	<g>
		<path d="M376,100h-72V84c0-13.255-10.745-24-24-24H8c-4.418,0-8,3.582-8,8v264c0,13.255,10.745,24,24,24h32.64
			c4.391,30.574,32.736,51.8,63.311,47.409c24.574-3.529,43.88-22.836,47.409-47.409h161.28c4.391,30.574,32.736,51.8,63.311,47.409
			c24.574-3.529,43.88-22.836,47.409-47.409H472c4.418,0,8-3.582,8-8V204C479.934,146.59,433.41,100.066,376,100z M60.568,325.888
			c-0.28,0.64-0.472,1.232-0.72,1.856c-0.392,1.008-0.8,2.016-1.12,3.056c-0.224,0.688-0.408,1.4-0.6,2.104
			c-0.28,1-0.552,1.992-0.8,3.008c-0.168,0.752-0.296,1.504-0.432,2.272c-0.112,0.608-0.264,1.2-0.352,1.816H24
			c-4.418,0-8-3.582-8-8v-8h45.464C61.16,324.632,60.848,325.248,60.568,325.888z M112,388c-22.091,0-40-17.909-40-40
			c0-22.091,17.909-40,40-40s40,17.909,40,40C151.974,370.08,134.08,387.974,112,388z M288,340H167.432
			c-0.088-0.616-0.232-1.208-0.352-1.816c-0.136-0.8-0.264-1.52-0.432-2.272c-0.224-1.016-0.496-2.008-0.8-3.008
			c-0.192-0.704-0.376-1.416-0.6-2.104c-0.336-1.04-0.728-2.048-1.12-3.056c-0.248-0.624-0.464-1.248-0.72-1.856
			c-0.256-0.608-0.592-1.256-0.896-1.888H288V340z M288,308H151.112c-0.216-0.216-0.456-0.416-0.688-0.624
			c-0.744-0.704-1.488-1.408-2.272-2.072c-0.552-0.472-1.128-0.912-1.704-1.36c-0.8-0.616-1.6-1.216-2.4-1.792
			c-0.608-0.424-1.224-0.8-1.856-1.232c-0.8-0.536-1.672-1.056-2.536-1.544c-0.648-0.376-1.304-0.728-1.968-1.08
			c-0.888-0.456-1.784-0.888-2.696-1.296c-0.68-0.312-1.36-0.616-2.048-0.896c-0.944-0.384-1.912-0.72-2.88-1.056
			c-0.696-0.24-1.384-0.488-2.096-0.696c-1.024-0.304-2.064-0.552-3.104-0.8c-0.688-0.16-1.36-0.344-2.056-0.48
			c-1.168-0.232-2.4-0.392-3.56-0.544c-0.592-0.08-1.176-0.192-1.776-0.248c-1.792-0.176-3.624-0.28-5.472-0.28
			s-3.68,0.104-5.48,0.28c-0.6,0.056-1.184,0.168-1.776,0.248c-1.2,0.152-2.4,0.312-3.56,0.544c-0.696,0.136-1.368,0.32-2.056,0.48
			c-1.04,0.248-2.08,0.496-3.104,0.8c-0.712,0.208-1.4,0.456-2.096,0.696c-0.968,0.336-1.936,0.672-2.88,1.056
			C90.36,296.384,89.68,296.688,89,297c-0.912,0.408-1.808,0.8-2.696,1.296c-0.664,0.352-1.32,0.704-1.968,1.08
			c-0.864,0.488-1.704,1.008-2.536,1.544c-0.632,0.4-1.248,0.8-1.856,1.232c-0.8,0.576-1.6,1.176-2.4,1.792
			c-0.576,0.448-1.152,0.888-1.704,1.36c-0.8,0.664-1.528,1.368-2.272,2.072c-0.28,0.264-0.576,0.504-0.856,0.8
			C72.478,308.105,72.24,308.047,72,308H16V76h264c4.418,0,8,3.582,8,8V308z M384,388c-22.091,0-40-17.909-40-40
			c0-22.091,17.909-40,40-40c22.091,0,40,17.909,40,40C423.974,370.08,406.08,387.974,384,388z M464,340h-24.568
			c-0.088-0.616-0.24-1.208-0.352-1.816c-0.136-0.8-0.264-1.52-0.432-2.272c-0.224-1.016-0.496-2.008-0.8-3.008
			c-0.192-0.704-0.376-1.416-0.6-2.104c-0.336-1.04-0.728-2.048-1.12-3.056c-0.248-0.624-0.464-1.248-0.72-1.856
			c-0.496-1.144-1.056-2.256-1.6-3.36c-0.224-0.44-0.416-0.896-0.656-1.328c-0.827-1.509-1.72-2.979-2.68-4.408
			c-0.216-0.32-0.464-0.608-0.68-0.928c-0.8-1.096-1.6-2.176-2.4-3.2c-0.392-0.48-0.8-0.928-1.224-1.4
			c-0.728-0.8-1.448-1.656-2.216-2.4c-0.488-0.496-1-0.96-1.512-1.432c-0.744-0.704-1.488-1.408-2.272-2.072
			c-0.552-0.472-1.128-0.912-1.704-1.36c-0.8-0.616-1.6-1.216-2.4-1.792c-0.608-0.424-1.224-0.8-1.856-1.232
			c-0.8-0.536-1.672-1.056-2.536-1.544c-0.648-0.376-1.304-0.728-1.968-1.08c-0.888-0.456-1.784-0.888-2.696-1.296
			c-0.68-0.312-1.36-0.616-2.048-0.896c-0.944-0.384-1.912-0.72-2.88-1.056c-0.696-0.24-1.384-0.488-2.096-0.696
			c-1.024-0.304-2.064-0.552-3.104-0.8c-0.688-0.16-1.36-0.344-2.056-0.48c-1.168-0.232-2.36-0.392-3.56-0.544
			c-0.592-0.08-1.176-0.192-1.776-0.248C387.68,292.104,385.848,292,384,292c-1.848,0-3.68,0.104-5.48,0.28
			c-0.6,0.056-1.184,0.168-1.776,0.248c-1.2,0.152-2.4,0.312-3.56,0.544c-0.696,0.136-1.368,0.32-2.056,0.48
			c-1.04,0.248-2.08,0.496-3.104,0.8c-0.712,0.208-1.4,0.456-2.096,0.696c-0.968,0.336-1.936,0.672-2.88,1.056
			c-0.688,0.28-1.368,0.584-2.048,0.896c-0.912,0.408-1.808,0.8-2.696,1.296c-0.664,0.352-1.32,0.704-1.968,1.08
			c-0.864,0.488-1.704,1.008-2.536,1.544c-0.632,0.4-1.248,0.8-1.856,1.232c-0.8,0.576-1.6,1.176-2.4,1.792
			c-0.576,0.448-1.152,0.888-1.704,1.36c-0.8,0.664-1.528,1.368-2.272,2.072c-0.512,0.472-1.024,0.936-1.512,1.432
			c-0.8,0.8-1.488,1.6-2.216,2.4c-0.408,0.472-0.8,0.92-1.224,1.4c-0.848,1.04-1.64,2.12-2.4,3.2
			c-0.216,0.32-0.464,0.608-0.68,0.928c-0.96,1.424-1.853,2.893-2.68,4.408c-0.24,0.432-0.432,0.888-0.656,1.328
			c-0.568,1.104-1.128,2.216-1.6,3.36c-0.256,0.608-0.472,1.232-0.72,1.856c-0.392,1.008-0.8,2.016-1.12,3.056
			c-0.224,0.688-0.408,1.4-0.6,2.104c-0.28,1-0.552,1.992-0.8,3.008c-0.168,0.752-0.296,1.504-0.432,2.272
			c-0.112,0.608-0.264,1.2-0.352,1.816H304V116h32v104c0.026,22.08,17.92,39.974,40,40h88V340z M464,244h-88
			c-13.255,0-24-10.745-24-24V116h24c48.577,0.057,87.943,39.423,88,88V244z"/>
	</g>
</g>
<g>
	<g>
		<path d="M226.912,129.088c-4.418,0-8,3.582-8,8c0,8.837-7.163,16-16,16c-8.837,0-16-7.163-16-16c0-8.837,7.163-16,16-16
			c4.418,0,8-3.582,8-8s-3.582-8-8-8c-17.673,0-32,14.327-32,32c0.029,5.697,1.596,11.28,4.536,16.16l-58.208,58.2
			c-4.878-2.937-10.458-4.504-16.152-4.536c-17.673,0-32,14.327-32,32c0,4.418,3.582,8,8,8s8-3.582,8-8c0-8.837,7.163-16,16-16
			s16,7.163,16,16s-7.163,16-16,16c-4.418,0-8,3.582-8,8s3.582,8,8,8c17.673,0,32-14.327,32-32
			c-0.029-5.697-1.596-11.28-4.536-16.16l58.208-58.2c4.878,2.937,10.458,4.504,16.152,4.536c17.673,0,32-14.327,32-32
			C234.912,132.67,231.33,129.088,226.912,129.088z"/>
	</g>
</g>
<g>
	<g>
		<path d="M384,316c-17.673,0-32,14.327-32,32c0,17.673,14.327,32,32,32c17.673,0,32-14.327,32-32C416,330.327,401.673,316,384,316z
			 M384,364c-8.837,0-16-7.163-16-16s7.163-16,16-16s16,7.163,16,16S392.837,364,384,364z"/>
	</g>
</g>
<g>
	<g>
		<path d="M112,316c-17.673,0-32,14.327-32,32c0,17.673,14.327,32,32,32s32-14.327,32-32C144,330.327,129.673,316,112,316z M112,364
			c-8.837,0-16-7.163-16-16s7.163-16,16-16s16,7.163,16,16S120.837,364,112,364z"/>
	</g>
</g>
<g>
	<g>
		<path d="M472,404H8c-4.418,0-8,3.582-8,8s3.582,8,8,8h464c4.418,0,8-3.582,8-8S476.418,404,472,404z"/>
	</g>
</g>
<g>
</g>
<g>
</g>
<g>
</g>
<g>
</g>
<g>
</g>
<g>
</g>
<g>
</g>
<g>
</g>
<g>
</g>
<g>
</g>
<g>
</g>
<g>
</g>
<g>
</g>
<g>
</g>
<g>
</g>
</svg>
