<?xml version="1.0"?>
<svg xmlns="http://www.w3.org/2000/svg" id="Layer_1" data-name="Layer 1" viewBox="0 0 512 512" width="512" height="512"><path d="M181.381,438.375H195.7a6,6,0,0,0,0-12H181.381a6,6,0,1,0,0,12Z"/><path d="M216.9,438.375h63.719a6,6,0,0,0,0-12H216.9a6,6,0,1,0,0,12Z"/><path d="M342.846,131.855A86.846,86.846,0,1,0,256,218.7,86.944,86.944,0,0,0,342.846,131.855ZM211.073,176.782a6,6,0,0,0-8.485,0l-3.548,3.547a74.5,74.5,0,0,1-17.624-42.474h5.048a6,6,0,1,0,0-12h-5.048A74.5,74.5,0,0,1,199.04,83.381l3.548,3.547a6,6,0,0,0,8.485-8.485L207.525,74.9A74.5,74.5,0,0,1,250,57.271v5.048a6,6,0,1,0,12,0V57.271A74.5,74.5,0,0,1,304.475,74.9l-3.548,3.548a6,6,0,1,0,8.485,8.485l3.548-3.547a74.5,74.5,0,0,1,17.624,42.474h-5.048a6,6,0,0,0,0,12h5.048a74.5,74.5,0,0,1-17.624,42.474l-3.548-3.547a6,6,0,1,0-8.485,8.485l3.547,3.547a74.626,74.626,0,0,1-96.948,0l3.547-3.547A6,6,0,0,0,211.073,176.782Z"/><path d="M256,164.6a18.874,18.874,0,0,0,6-36.772V100.893a6,6,0,0,0-12,0v26.936a18.874,18.874,0,0,0,6,36.772Zm0-25.766a6.883,6.883,0,1,1-6.883,6.883A6.891,6.891,0,0,1,256,138.835Z"/><path d="M475,294.375H431a16.019,16.019,0,0,0-16,16v6H333.5v-35a6,6,0,0,0-6-6H282v-36.4a110.23,110.23,0,1,0-52,0v36.4H184.5a6,6,0,0,0-6,6v35H97v-6a16.019,16.019,0,0,0-16-16H37a16.019,16.019,0,0,0-16,16v164a16.019,16.019,0,0,0,16,16H81a16.019,16.019,0,0,0,16-16v-6H415v6a16.019,16.019,0,0,0,16,16h44a16.019,16.019,0,0,0,16-16v-164A16.019,16.019,0,0,0,475,294.375Zm-390,180a4,4,0,0,1-4,4H37a4,4,0,0,1-4-4v-42H85Zm0-54H33v-56H85Zm0-68H33v-42a4,4,0,0,1,4-4H81a4,4,0,0,1,4,4Zm216.5-65h20v29h-20Zm-12,0v29h-27v-29Zm-47.5-12V241.2a111.177,111.177,0,0,0,28,0v34.176Zm-84.23-143.52A98.23,98.23,0,1,1,256,230.084,98.342,98.342,0,0,1,157.77,131.855Zm64.73,155.52h28v29h-28Zm-32,0h20v29h-20Zm-52.5,169H97v-128h41Zm224,0H150v-128H362Zm53,0H374v-128h41Zm64,18a4,4,0,0,1-4,4H431a4,4,0,0,1-4-4v-42h52Zm0-54H427v-56h52Zm0-68H427v-42a4,4,0,0,1,4-4h44a4,4,0,0,1,4,4Z"/></svg>
